<svg width="21" height="20" viewBox="0 0 21 20" fill="none" xmlns="http://www.w3.org/2000/svg">
<path d="M6.70898 5.36702V1.53369M14.709 5.36702V1.53369M6.71898 8.24202H6.70898M6.71898 11.117H6.70898M6.71898 13.992H6.70898M10.719 11.117H10.709M10.719 8.24202H10.709M14.719 11.117H14.709M10.719 13.992H10.709M14.719 8.24202H14.709M4.70898 18.7837H16.709C18.3658 18.7837 19.709 17.4965 19.709 15.9087V6.32536C19.709 4.73754 18.3658 3.45036 16.709 3.45036H4.70898C3.05213 3.45036 1.70898 4.73754 1.70898 6.32536V15.9087C1.70898 17.4965 3.05213 18.7837 4.70898 18.7837Z" stroke="#A4A4A4" stroke-width="1.5" stroke-linecap="round" stroke-linejoin="round"/>
</svg>
