<svg width="88" height="88" viewBox="0 0 88 88" fill="none" xmlns="http://www.w3.org/2000/svg">
<g filter="url(#filter0_d_244_5767)">
<circle cx="44" cy="42.1995" r="34" fill="#F5BD02"/>
</g>
<g filter="url(#filter1_d_244_5767)">
<circle cx="44" cy="42.1995" r="24" fill="#03392E" fill-opacity="0.3" shape-rendering="crispEdges"/>
</g>
<g clip-path="url(#clip0_244_5767)">
<g opacity="0.938">
<path d="M35.6455 14.1458C35.9042 15.1744 36.5487 15.8369 37.5791 16.1331C36.5615 16.4525 35.8812 17.1149 35.5381 18.1204C35.18 17.1178 34.4996 16.4374 33.4971 16.0793C34.5319 15.8148 35.1764 15.1702 35.4307 14.1458H35.6455Z" fill="#01271F"/>
<path d="M35.6455 14.1458C35.9042 15.1744 36.5487 15.8369 37.5791 16.1331C36.5615 16.4525 35.8812 17.1149 35.5381 18.1204C35.18 17.1178 34.4996 16.4374 33.4971 16.0793C34.5319 15.8148 35.1764 15.1702 35.4307 14.1458H35.6455Z" stroke="black"/>
</g>
<path opacity="0.964" fill-rule="evenodd" clip-rule="evenodd" d="M23.9482 67.1047C21.9788 67.1047 24.9694 67.9641 23 67.9641C25.501 66.7825 22.4999 65.6331 20.6064 66.1995C20.5014 60.6453 19.839 57.0747 20.0156 51.5286C20.1814 51.3268 20.3783 51.1657 20.6064 51.0452C22.5042 50.9735 24.402 50.9735 26.2998 51.0452C26.7054 51.2176 26.9203 51.5219 26.9443 51.9583C27.7756 51.92 28.5992 51.9737 29.415 52.1194C29.8904 52.5686 30.0694 53.1236 29.9521 53.7844C30.6315 53.7058 31.3119 53.6341 31.9932 53.5696C32.1304 50.5967 32.2916 47.6246 32.4766 44.6536C32.6052 43.4818 33.1961 42.6404 34.249 42.1292C35.9989 41.6469 37.7534 41.1814 39.5127 40.7327C40.3267 40.3346 41.1324 39.9228 41.9297 39.4973C42.0013 38.9602 42.0013 38.4231 41.9297 37.886C40.1752 36.7781 39.083 35.2026 38.6533 33.1594C36.4335 32.6949 35.4488 31.3342 35.6992 29.0774C35.8755 28.5096 36.162 28.0082 36.5586 27.5735C36.5692 26.172 36.6409 24.7755 36.7734 23.384C37.6123 20.3252 39.5996 18.5527 42.7353 18.0667C43.8096 17.995 44.8838 17.995 45.958 18.0667C46.3636 18.1303 46.7575 18.2377 47.1396 18.3889C47.7186 18.7134 48.2558 19.0894 48.751 19.5168C50.7858 18.9 52.4508 19.4372 53.7461 21.1282C53.9844 21.5332 54.1634 21.9629 54.2832 22.4172C54.319 24.2076 54.3548 25.9979 54.3906 27.7883C55.5794 29.5448 55.3825 31.1382 53.7998 32.5686C53.2652 32.8723 52.6922 33.0334 52.081 33.052C51.7904 35.1018 50.7699 36.6774 49.0195 37.7786C48.9479 38.3514 48.9479 38.9244 49.0195 39.4973C49.8168 39.9228 50.6225 40.3346 51.4365 40.7327C53.1149 41.1791 54.7978 41.6088 56.4853 42.0217C57.6484 42.4674 58.3109 43.309 58.4726 44.5461C58.6934 48.1618 58.8903 51.7783 59.0635 55.3958C60.6648 54.9172 61.9002 55.3827 62.7695 56.7922C63.3151 58.3174 62.9391 59.5528 61.6416 60.4983C59.2783 62.0022 56.915 63.5061 54.5517 65.01C51.1094 67.3313 47.3496 68.0832 43.2725 67.2659C40.5674 66.5193 37.8459 65.839 35.1084 65.2249C33.3874 65.014 31.6686 65.0319 29.9521 65.2786C29.97 65.8883 29.952 66.4971 29.8984 67.1047C29.7485 67.6126 29.4084 67.8812 28.8779 67.9104C28.2344 67.964 27.5898 67.9819 26.9443 67.9641C27.0061 68.4731 24.368 66.826 23.9482 67.1047Z" fill="#030303"/>
<path fill-rule="evenodd" clip-rule="evenodd" d="M42.8426 19.0872C43.9932 19.0537 45.139 19.1074 46.2801 19.2483C47.0479 19.5502 47.6567 20.0515 48.1062 20.7522C48.3211 20.8238 48.5359 20.8238 48.7508 20.7522C50.2599 20.05 51.5669 20.3185 52.6717 21.5579C52.9331 21.9119 53.1122 22.3057 53.2088 22.7395C53.2804 24.1718 53.2804 25.6041 53.2088 27.0364C52.8918 26.8671 52.5517 26.7954 52.1883 26.8215C52.2239 26.3729 52.0806 25.997 51.7586 25.6936C50.7446 25.5311 49.7419 25.3162 48.7508 25.0491C48.0131 24.6627 47.2969 24.2509 46.6023 23.8137C46.0705 23.9331 45.6766 24.2375 45.4207 24.7268C43.5961 26.2033 41.5193 26.7047 39.1902 26.2307C38.9396 26.3381 38.7605 26.5172 38.6531 26.7678C38.3605 26.7968 38.074 26.8505 37.7937 26.9289C37.1975 22.8061 38.8804 20.1922 42.8426 19.0872Z" fill="black"/>
<g opacity="0.893">
<path d="M31.8857 21.0208C32.5685 21.0755 32.7834 21.4157 32.5303 22.0413C31.9907 22.3539 31.6327 22.2286 31.4561 21.6653C31.4954 21.3692 31.6387 21.1544 31.8857 21.0208Z" fill="#01271F"/>
<path d="M31.8857 21.0208C32.5685 21.0755 32.7834 21.4157 32.5303 22.0413C31.9907 22.3539 31.6327 22.2286 31.4561 21.6653C31.4954 21.3692 31.6387 21.1544 31.8857 21.0208Z" stroke="black"/>
</g>
<g opacity="0.937">
<path d="M57.9893 22.8471C58.6505 22.8283 58.937 23.1506 58.8486 23.8139C59.6713 23.7692 59.9219 24.1093 59.6006 24.8344C59.3668 24.9635 59.116 25.0172 58.8486 24.9955C58.8519 25.8675 58.4759 26.0824 57.7207 25.6401C57.6675 25.4282 57.6496 25.2132 57.667 24.9955C57.1691 25.0694 56.8467 24.8724 56.7002 24.4047C56.8177 23.8825 57.14 23.6856 57.667 23.8139C57.6051 23.4259 57.7126 23.1036 57.9893 22.8471Z" fill="#01271F"/>
<path d="M57.9893 22.8471C58.6505 22.8283 58.937 23.1506 58.8486 23.8139C59.6713 23.7692 59.9219 24.1093 59.6006 24.8344C59.3668 24.9635 59.116 25.0172 58.8486 24.9955C58.8519 25.8675 58.4759 26.0824 57.7207 25.6401C57.6675 25.4282 57.6496 25.2132 57.667 24.9955C57.1691 25.0694 56.8467 24.8724 56.7002 24.4047C56.8177 23.8825 57.14 23.6856 57.667 23.8139C57.6051 23.4259 57.7126 23.1036 57.9893 22.8471Z" stroke="black"/>
</g>
<path fill-rule="evenodd" clip-rule="evenodd" d="M46.495 25.1028C47.2068 25.5303 47.9587 25.9063 48.7509 26.2307C49.4814 26.4879 50.2334 26.6131 51.0067 26.6067C51.0247 28.7554 51.0067 30.9039 50.953 33.052C50.221 35.9856 48.3412 37.5253 45.3134 37.6711C42.2149 37.4211 40.3709 35.774 39.7811 32.7297C39.7274 30.9398 39.7095 29.1494 39.7274 27.3586C41.7244 27.636 43.5863 27.26 45.3134 26.2307C45.7611 25.9082 46.155 25.5323 46.495 25.1028Z" fill="#FFBD86"/>
<path fill-rule="evenodd" clip-rule="evenodd" d="M38.2238 27.8958C38.367 27.8958 38.5103 27.8958 38.6535 27.8958C38.6535 29.2565 38.6535 30.6171 38.6535 31.9778C37.2159 31.7046 36.5894 30.8452 36.7736 29.3997C37.008 28.6491 37.4914 28.1478 38.2238 27.8958Z" fill="#F2CAAF"/>
<path fill-rule="evenodd" clip-rule="evenodd" d="M52.1884 27.8958C52.1191 29.2613 52.1906 30.5861 52.4033 31.8704C52.3271 31.9675 52.2197 32.0032 52.081 31.9778C52.0457 30.5981 52.0816 29.2373 52.1884 27.8958Z" fill="#5D4F47"/>
<path fill-rule="evenodd" clip-rule="evenodd" d="M52.1887 27.8958C53.9004 28.3171 54.4196 29.3554 53.7463 31.011C53.4214 31.4985 52.9739 31.7849 52.4036 31.8704C52.1909 30.5861 52.1193 29.2613 52.1887 27.8958Z" fill="#F6CEB2"/>
<path fill-rule="evenodd" clip-rule="evenodd" d="M42.8427 29.3997C43.5398 29.3627 43.7546 29.6671 43.4873 30.3128C43.1639 30.5514 42.8954 30.4977 42.6816 30.1516C42.5921 29.8647 42.6458 29.6141 42.8427 29.3997Z" fill="#292424"/>
<path fill-rule="evenodd" clip-rule="evenodd" d="M47.5693 29.3996C48.1601 29.3278 48.3929 29.5785 48.2675 30.1516C47.9864 30.5787 47.6999 30.5787 47.4081 30.1516C47.3187 29.8647 47.3724 29.6141 47.5693 29.3996Z" fill="#282323"/>
<g opacity="0.885">
<path d="M60.3521 30.6887C61.1561 30.8289 61.2994 31.2049 60.7817 31.8167C60.0991 31.9756 59.8304 31.707 59.9761 31.011C60.099 30.889 60.2245 30.7815 60.3521 30.6887Z" fill="#01271F"/>
<path d="M60.3521 30.6887C61.1561 30.8289 61.2994 31.2049 60.7817 31.8167C60.0991 31.9756 59.8304 31.707 59.9761 31.011C60.099 30.889 60.2245 30.7815 60.3521 30.6887Z" stroke="black"/>
</g>
<path fill-rule="evenodd" clip-rule="evenodd" d="M43.165 33.2669C43.3828 33.2495 43.5976 33.2674 43.8096 33.3206C44.9161 34.5314 46.0262 34.5314 47.1396 33.3206C47.8837 33.1687 48.1164 33.4372 47.8379 34.1262C46.6182 35.46 45.2396 35.657 43.7021 34.7171C43.3442 34.4497 43.0935 34.1095 42.9502 33.6966C42.9773 33.5276 43.0488 33.3844 43.165 33.2669Z" fill="#272223"/>
<path fill-rule="evenodd" clip-rule="evenodd" d="M43.1649 38.4231C44.6999 38.847 46.2396 38.847 47.784 38.4231C47.8018 38.89 47.7839 39.3554 47.7303 39.8196C47.3657 40.6562 46.9718 41.4798 46.5487 42.2903C45.8207 42.4311 45.0866 42.4311 44.3465 42.2903C43.9705 41.4667 43.5946 40.6432 43.2186 39.8196C43.165 39.3554 43.147 38.89 43.1649 38.4231Z" fill="#F7CEB2"/>
<g opacity="0.918">
<path d="M27.9106 40.7867C28.564 40.7701 28.8504 41.0924 28.77 41.7535C29.2702 41.6289 29.5567 41.808 29.6294 42.2906C29.5609 42.7878 29.2743 43.0029 28.77 42.9352C28.7032 43.7999 28.3272 44.015 27.6421 43.5797C27.5889 43.3679 27.571 43.1528 27.5884 42.9352C26.727 42.9715 26.4763 42.6131 26.8364 41.861C27.0777 41.7671 27.3285 41.7312 27.5884 41.7535C27.5266 41.3611 27.6343 41.0386 27.9106 40.7867Z" fill="#01271F"/>
<path d="M27.9106 40.7867C28.564 40.7701 28.8504 41.0924 28.77 41.7535C29.2702 41.6289 29.5567 41.808 29.6294 42.2906C29.5609 42.7878 29.2743 43.0029 28.77 42.9352C28.7032 43.7999 28.3272 44.015 27.6421 43.5797C27.5889 43.3679 27.571 43.1528 27.5884 42.9352C26.727 42.9715 26.4763 42.6131 26.8364 41.861C27.0777 41.7671 27.3285 41.7312 27.5884 41.7535C27.5266 41.3611 27.6343 41.0386 27.9106 40.7867Z" stroke="black"/>
</g>
<path fill-rule="evenodd" clip-rule="evenodd" d="M42.1982 40.6789C42.2923 40.6649 42.364 40.7006 42.4131 40.7864C42.672 41.4113 42.9585 42.0201 43.2725 42.6125C42.7343 43.2614 42.1972 43.9059 41.6611 44.5461C41.2529 43.6044 40.8591 42.6554 40.4795 41.6995C40.4951 41.6165 40.5308 41.5449 40.5869 41.4846C41.1339 41.2111 41.671 40.9426 42.1982 40.6789Z" fill="#E4E4E5"/>
<path fill-rule="evenodd" clip-rule="evenodd" d="M48.5361 40.679C49.2656 40.8823 49.9102 41.2225 50.4697 41.6995C50.1274 42.6738 49.7335 43.6226 49.2881 44.5461C48.7324 43.9008 48.1953 43.2383 47.6768 42.5588C47.9792 41.9363 48.2656 41.3096 48.5361 40.679Z" fill="#E4E4E5"/>
<path fill-rule="evenodd" clip-rule="evenodd" d="M52.1885 58.7258C52.1168 58.511 52.0453 58.2961 51.9736 58.0813C51.6964 56.82 50.9087 56.0858 49.6104 55.8792C47.4975 55.7736 45.3848 55.6661 43.2725 55.5569C41.506 55.171 39.7873 54.6339 38.1162 53.9456C38.0277 52.4318 37.974 50.9099 37.9551 49.3801C37.6051 49.0744 37.3007 49.1102 37.042 49.4875C36.9703 50.8483 36.8988 52.2089 36.8271 53.5696C35.6131 53.3639 34.3955 53.328 33.1748 53.4622C33.2328 50.4133 33.3939 47.3696 33.6582 44.3313C33.9206 43.6526 34.404 43.205 35.1084 42.9885C36.533 42.5963 37.9653 42.2741 39.4053 42.0217C39.8524 43.0762 40.3 44.1326 40.748 45.1907C41.1298 45.7225 41.6132 45.8479 42.1982 45.5667C42.8115 44.9178 43.3845 44.2374 43.917 43.5256C44.9554 43.454 45.9938 43.454 47.0322 43.5256C47.5647 44.2374 48.1377 44.9178 48.751 45.5667C49.2247 45.7803 49.6722 45.7266 50.0938 45.4055C50.5843 44.2346 51.1035 43.0889 51.6514 41.968C53.1142 42.3606 54.5824 42.7366 56.0557 43.0959C56.8465 43.369 57.294 43.924 57.3984 44.761C57.5597 48.3438 57.7566 51.9245 57.9893 55.5032C57.9535 55.6822 57.9176 55.8612 57.8818 56.0403C56.6024 56.6352 55.3313 57.2439 54.0684 57.8665C54.0326 55.0735 53.9967 52.2805 53.9609 49.4875C53.6703 49.1139 53.348 49.0782 52.9941 49.3801C52.9584 52.3879 52.9225 55.3958 52.8867 58.4036C52.6726 58.5555 52.4398 58.6629 52.1885 58.7258Z" fill="#03392E"/>
<path fill-rule="evenodd" clip-rule="evenodd" d="M45.206 45.1907C45.9031 45.1537 46.1179 45.4582 45.8505 46.1038C45.5272 46.3425 45.2586 46.2887 45.0449 45.9426C44.9554 45.6557 45.0091 45.4051 45.206 45.1907Z" fill="white"/>
<g opacity="0.921">
<path d="M23.5068 45.1907C24.2667 45.2962 24.4458 45.6721 24.0439 46.3186C23.552 46.488 23.2298 46.3269 23.0771 45.8352C23.1241 45.5425 23.2673 45.3276 23.5068 45.1907Z" fill="#01271F"/>
<path d="M23.5068 45.1907C24.2667 45.2962 24.4458 45.6721 24.0439 46.3186C23.552 46.488 23.2298 46.3269 23.0771 45.8352C23.1241 45.5425 23.2673 45.3276 23.5068 45.1907Z" stroke="black"/>
</g>
<path fill-rule="evenodd" clip-rule="evenodd" d="M45.2063 47.9836C45.9567 47.9655 46.1358 48.2698 45.7434 48.8967C44.9824 48.9477 44.8034 48.6434 45.2063 47.9836Z" fill="white"/>
<path fill-rule="evenodd" clip-rule="evenodd" d="M37.042 49.4875C37.0777 50.8859 37.0419 52.2823 36.9346 53.677C36.8694 53.6637 36.8336 53.6279 36.8271 53.5696C36.8988 52.2089 36.9703 50.8483 37.042 49.4875Z" fill="#3C5D6E"/>
<path fill-rule="evenodd" clip-rule="evenodd" d="M45.3133 50.6692C45.9856 50.7741 46.1288 51.1143 45.743 51.6897C45.0983 51.7964 44.8656 51.5278 45.0448 50.884C45.1517 50.8232 45.2412 50.7516 45.3133 50.6692Z" fill="white"/>
<path fill-rule="evenodd" clip-rule="evenodd" d="M47.7843 50.6692C48.7875 50.6513 49.7901 50.6692 50.7921 50.7229C51.2198 51.0503 51.2198 51.3726 50.7921 51.6897C49.7536 51.7613 48.7153 51.7613 47.6768 51.6897C47.3817 51.3194 47.4176 50.9792 47.7843 50.6692Z" fill="white"/>
<path fill-rule="evenodd" clip-rule="evenodd" d="M21.0361 52.0657C22.6475 52.0657 24.2588 52.0657 25.8701 52.0657C25.8701 56.7357 25.8701 61.4056 25.8701 66.0757C24.2588 66.0757 22.6475 66.0757 21.0361 66.0757C21.0361 61.4056 21.0361 56.7357 21.0361 52.0657Z" fill="#01271F"/>
<path fill-rule="evenodd" clip-rule="evenodd" d="M26.9443 53.1399C27.5531 53.1399 28.1617 53.1399 28.7705 53.1399C28.7466 57.6882 28.7823 62.2357 28.8779 66.7825C28.2334 66.7825 27.5889 66.7825 26.9443 66.7825C26.9443 62.235 26.9443 57.6874 26.9443 53.1399Z" fill="#E8E8E9"/>
<path fill-rule="evenodd" clip-rule="evenodd" d="M45.2062 53.4622C45.9096 53.4307 46.1244 53.7351 45.8507 54.3753C45.1617 54.6538 44.8932 54.421 45.0451 53.677C45.1221 53.6186 45.1758 53.5469 45.2062 53.4622Z" fill="white"/>
<path fill-rule="evenodd" clip-rule="evenodd" d="M30.3818 64.0969C30.2386 64.0969 30.0953 64.0969 29.9521 64.0969C29.9521 61.0534 29.9521 58.0097 29.9521 54.9661C32.33 54.4964 34.7291 54.4427 37.1494 54.8049C39.2155 55.6011 41.328 56.2456 43.4873 56.7385C45.3874 56.7596 47.2852 56.8311 49.1807 56.9534C50.414 57.0749 50.969 57.7374 50.8457 58.9407C50.7509 59.2202 50.5897 59.453 50.3623 59.6389C49.6829 60.0089 48.9667 60.2953 48.2139 60.4983C46.9355 60.7358 45.6465 60.879 44.3467 60.928C44.0602 61.2503 44.0602 61.5725 44.3467 61.8948C46.3093 62.0384 48.2071 61.752 50.04 61.0354C53.2367 59.5267 56.4236 57.987 59.6006 56.4163C61.5651 56.3043 62.2275 57.1817 61.5879 59.0481C58.7146 60.9413 55.8321 62.8212 52.9404 64.6878C50.4348 66.0929 47.7493 66.6658 44.8838 66.4065C41.5821 65.6527 38.2879 64.8649 35.001 64.0432C33.4593 63.9653 31.9196 63.9833 30.3818 64.0969Z" fill="#FFBD86"/>
<path fill-rule="evenodd" clip-rule="evenodd" d="M29.9523 54.9661C29.9523 58.0096 29.9523 61.0533 29.9523 64.0969C30.0955 64.0969 30.2388 64.0969 30.3819 64.0969C30.2295 64.1991 30.0505 64.2349 29.8448 64.2043C29.8093 61.1065 29.845 58.0271 29.9523 54.9661Z" fill="#65564E"/>
<path fill-rule="evenodd" clip-rule="evenodd" d="M51.9738 58.0813C52.0455 58.2961 52.117 58.511 52.1887 58.7258C52.1822 58.7842 52.1464 58.8199 52.0812 58.8333C51.9766 58.5923 51.9407 58.3417 51.9738 58.0813Z" fill="#3A5A6A"/>
</g>
<defs>
<filter id="filter0_d_244_5767" x="0.579198" y="0.662821" width="86.8416" height="86.8416" filterUnits="userSpaceOnUse" color-interpolation-filters="sRGB">
<feFlood flood-opacity="0" result="BackgroundImageFix"/>
<feColorMatrix in="SourceAlpha" type="matrix" values="0 0 0 0 0 0 0 0 0 0 0 0 0 0 0 0 0 0 127 0" result="hardAlpha"/>
<feOffset dy="1.88416"/>
<feGaussianBlur stdDeviation="4.7104"/>
<feComposite in2="hardAlpha" operator="out"/>
<feColorMatrix type="matrix" values="0 0 0 0 0.960784 0 0 0 0 0.960784 0 0 0 0 0.960784 0 0 0 0.1 0"/>
<feBlend mode="normal" in2="BackgroundImageFix" result="effect1_dropShadow_244_5767"/>
<feBlend mode="normal" in="SourceGraphic" in2="effect1_dropShadow_244_5767" result="shape"/>
</filter>
<filter id="filter1_d_244_5767" x="12.6002" y="12.7729" width="62.7997" height="62.7997" filterUnits="userSpaceOnUse" color-interpolation-filters="sRGB">
<feFlood flood-opacity="0" result="BackgroundImageFix"/>
<feColorMatrix in="SourceAlpha" type="matrix" values="0 0 0 0 0 0 0 0 0 0 0 0 0 0 0 0 0 0 127 0" result="hardAlpha"/>
<feOffset dy="1.97329"/>
<feGaussianBlur stdDeviation="3.69992"/>
<feComposite in2="hardAlpha" operator="out"/>
<feColorMatrix type="matrix" values="0 0 0 0 0.960784 0 0 0 0 0.960784 0 0 0 0 0.960784 0 0 0 0.05 0"/>
<feBlend mode="normal" in2="BackgroundImageFix" result="effect1_dropShadow_244_5767"/>
<feBlend mode="normal" in="SourceGraphic" in2="effect1_dropShadow_244_5767" result="shape"/>
</filter>
<clipPath id="clip0_244_5767">
<rect width="55" height="55" fill="white" transform="translate(14 14.1995)"/>
</clipPath>
</defs>
</svg>
