<svg width="21" height="24" viewBox="0 0 21 24" fill="none" xmlns="http://www.w3.org/2000/svg">
<path d="M15.5257 6.27533C14.8865 5.89669 14.4328 5.71844 14.0689 5.57583C13.7124 5.43569 13.4764 5.34349 13.1445 5.09762C12.0504 4.28994 11.3459 2.84177 11.0509 0.791228C11.0005 0.439636 10.7522 0.148282 10.4129 0.0425582C10.0723 -0.0643947 9.70354 0.0339529 9.46259 0.295803C8.37708 1.46614 7.49441 2.78891 6.8404 4.2297C6.23925 5.5537 5.83848 6.97851 5.64917 8.43775C5.23119 7.6313 4.98286 6.73756 4.91156 5.77253C4.88451 5.40987 4.64602 5.09639 4.30426 4.97345C3.96005 4.84806 3.57895 4.94026 3.32694 5.20334C2.46271 6.10568 -0.33036 9.4163 0.0322959 14.1358C0.126955 15.3737 0.64082 18.5454 3.34046 21.245C5.79546 23.7 9.1823 24 10.6907 24C11.1345 24 11.416 23.9742 11.4615 23.9693C12.0553 23.909 17.3255 23.244 19.5764 18.5319C19.6588 18.3573 21.5827 14.2353 19.5629 10.3346C18.9949 9.23682 17.8332 7.64113 15.5257 6.27533Z" fill="#FF0073" fill-opacity="0.2"/>
<path d="M15.2598 18.5162C15.2118 17.6175 14.9192 17.0201 14.2124 15.5793C13.4293 13.986 12.763 12.6522 12.2663 11.6626C12.1422 11.4155 11.9135 11.2372 11.643 11.1758C11.3726 11.1143 11.0898 11.1795 10.8722 11.3503C10.5268 11.622 8.84506 13.0616 8.79712 15.3998C8.5242 15.1539 8.22547 14.8945 7.84684 14.5946C7.6022 14.4016 7.27519 14.3438 6.97892 14.4434C6.68265 14.5442 6.45768 14.7876 6.38023 15.09C5.6082 18.1326 6.47612 21.0953 8.54018 22.4636C9.26919 22.948 10.3055 23.3549 11.3714 23.3549C11.9774 23.3549 12.5933 23.2233 13.1674 22.9C15.3594 21.667 15.2758 18.8346 15.2598 18.5162Z" fill="#FF0073"/>
</svg>