<svg width="20" height="21" viewBox="0 0 20 21" fill="none" xmlns="http://www.w3.org/2000/svg">
<path d="M7.35353 19.0292V15.9715C7.35353 15.1909 7.99092 14.5582 8.77719 14.5582H11.6514C12.0289 14.5582 12.3911 14.7071 12.658 14.9721C12.925 15.2372 13.075 15.5966 13.075 15.9715V19.0292C13.0726 19.3537 13.2008 19.6657 13.4311 19.896C13.6614 20.1263 13.9748 20.2559 14.3017 20.2559H16.2626C17.1784 20.2582 18.0575 19.8987 18.7059 19.2567C19.3543 18.6146 19.7188 17.7428 19.7188 16.8337V8.12272C19.7188 7.38832 19.3908 6.6917 18.8234 6.22053L12.1528 0.931728C10.9924 0.00442106 9.32986 0.0343615 8.20414 1.00284L1.68576 6.22053C1.09149 6.67781 0.736302 7.3765 0.71875 8.12272V16.8248C0.71875 18.7197 2.26613 20.2559 4.17492 20.2559H6.09104C6.76998 20.2559 7.32175 19.7121 7.32667 19.0381L7.35353 19.0292Z" fill="white"/>
</svg>