<svg width="20" height="20" viewBox="0 0 20 20" fill="none" xmlns="http://www.w3.org/2000/svg">
<path d="M14.5168 3.6752H4.49176L6.0584 2.10858C6.30007 1.86691 6.30007 1.46686 6.0584 1.2252C5.81673 0.983529 5.41674 0.983529 5.17507 1.2252L2.54173 3.85856C2.4834 3.91689 2.44176 3.98355 2.40842 4.05855C2.37509 4.13355 2.3584 4.21686 2.3584 4.3002C2.3584 4.38353 2.37509 4.4669 2.40842 4.5419C2.44176 4.6169 2.4834 4.68356 2.54173 4.74189L5.17507 7.3752C5.30007 7.5002 5.4584 7.55856 5.61673 7.55856C5.77507 7.55856 5.9334 7.5002 6.0584 7.3752C6.30007 7.13353 6.30007 6.73353 6.0584 6.49187L4.49176 4.9252H14.5168C15.5501 4.9252 16.3918 5.76686 16.3918 6.8002V9.56687C16.3918 9.90854 16.6751 10.1919 17.0168 10.1919C17.3584 10.1919 17.6418 9.90854 17.6418 9.56687V6.8002C17.6418 5.0752 16.2418 3.6752 14.5168 3.6752Z" fill="#7A7F99"/>
<path d="M17.6418 15.7003C17.6418 15.6169 17.6251 15.5336 17.5917 15.4586C17.5584 15.3836 17.5168 15.3169 17.4584 15.2586L14.8251 12.6253C14.5834 12.3836 14.1834 12.3836 13.9418 12.6253C13.7001 12.8669 13.7001 13.2669 13.9418 13.5086L15.5084 15.0753H5.4834C4.45007 15.0753 3.6084 14.2336 3.6084 13.2003V10.4336C3.6084 10.0919 3.32507 9.80859 2.9834 9.80859C2.64173 9.80859 2.3584 10.0919 2.3584 10.4336V13.2003C2.3584 14.9253 3.7584 16.3253 5.4834 16.3253H15.5084L13.9418 17.8919C13.7001 18.1336 13.7001 18.5336 13.9418 18.7753C14.0668 18.9003 14.2251 18.9586 14.3834 18.9586C14.5418 18.9586 14.7001 18.9003 14.8251 18.7753L17.4584 16.1419C17.5168 16.0836 17.5584 16.0169 17.5917 15.9419C17.6251 15.8669 17.6418 15.7836 17.6418 15.7003Z" fill="#7A7F99"/>
</svg>