<svg width="18" height="18" viewBox="0 0 18 18" fill="none" xmlns="http://www.w3.org/2000/svg">
<path d="M0.400802 6.22955C0.793382 5.02064 1.44008 3.91094 2.29338 2.9705C2.43767 2.81147 2.66405 2.75478 2.86673 2.82695L4.90595 3.55295C5.4588 3.74967 6.06714 3.46289 6.26471 2.9124C6.28413 2.85827 6.2991 2.80266 6.30944 2.7462L6.69794 0.622909C6.73656 0.411799 6.8994 0.244805 7.1102 0.20012C7.72697 0.0694096 8.35934 0.00292969 9 0.00292969C9.64028 0.00292969 10.2723 0.0693346 10.8887 0.19988C11.0994 0.24452 11.2622 0.411409 11.301 0.622445L11.6906 2.74611C11.7959 3.3212 12.3494 3.70238 12.9271 3.59751C12.9839 3.58719 13.0397 3.5723 13.094 3.55298L15.1333 2.82695C15.3359 2.75478 15.5623 2.81147 15.7066 2.9705C16.5599 3.91094 17.2066 5.02064 17.5993 6.22955C17.6654 6.43349 17.6015 6.65708 17.4374 6.7958L15.7846 8.19308C15.3371 8.57146 15.2824 9.23942 15.6623 9.68502C15.6997 9.72884 15.7406 9.76955 15.7846 9.80673L17.4374 11.204C17.6015 11.3427 17.6654 11.5663 17.5993 11.7703C17.2066 12.9793 16.5599 14.089 15.7066 15.0293C15.5623 15.1883 15.3359 15.245 15.1333 15.1729L13.094 14.4469C12.5413 14.2502 11.9329 14.537 11.7353 15.0874C11.7159 15.1415 11.7009 15.1972 11.6905 15.2539L11.301 17.3774C11.2622 17.5885 11.0994 17.7553 10.8887 17.8C10.2723 17.9305 9.64028 17.9969 9 17.9969C8.35934 17.9969 7.72697 17.9305 7.1102 17.7997C6.8994 17.755 6.73656 17.588 6.69794 17.377L6.30945 15.2537C6.20412 14.6786 5.65053 14.2975 5.07296 14.4023C5.01615 14.4127 4.96031 14.4275 4.90604 14.4469L2.86673 15.1729C2.66405 15.245 2.43767 15.1883 2.29338 15.0293C1.44008 14.089 0.793382 12.9793 0.400802 11.7703C0.334577 11.5663 0.398431 11.3427 0.562546 11.204L2.2154 9.80675C2.66292 9.42838 2.71766 8.76041 2.33766 8.31481C2.3003 8.27099 2.25941 8.23028 2.21541 8.19309L0.562546 6.7958C0.398431 6.65708 0.334577 6.43349 0.400802 6.22955ZM6.37482 8.99982C6.37482 10.4496 7.55007 11.6248 8.99982 11.6248C10.4496 11.6248 11.6248 10.4496 11.6248 8.99982C11.6248 7.55007 10.4496 6.37482 8.99982 6.37482C7.55007 6.37482 6.37482 7.55007 6.37482 8.99982Z" fill="white"/>
</svg>