<svg width="68" height="61" viewBox="0 0 68 61" fill="none" xmlns="http://www.w3.org/2000/svg">
<circle cx="16.6083" cy="8.42991" r="7.49156" fill="#054E3F" fill-opacity="0.7"/>
<circle cx="64.5547" cy="39.3949" r="2.99662" fill="#054E3F" fill-opacity="0.7"/>
<path d="M64.0269 9.82402C66.4876 15.8871 63.5674 22.797 57.5043 25.2578C56.8355 25.5292 56.1563 25.7352 55.474 25.8787C51.6771 26.6772 47.4369 27.7631 45.4052 31.0686C43.0332 34.9279 44.3296 39.9397 47.8322 42.8124C54.8159 48.5403 60.467 56.0897 63.9777 65.1059C74.8764 93.0955 61.0216 124.621 33.032 135.519C5.04243 146.418 -26.4827 132.563 -37.3814 104.574C-48.2801 76.584 -34.4253 45.0589 -6.4357 34.1602C5.78959 29.3998 18.6894 29.3619 30.2503 33.1615C34.4378 34.5378 39.2119 33.2338 41.5199 29.4786L42.3781 28.0822C44.0801 25.3131 43.2928 21.7469 42.0705 18.7352C39.6098 12.6721 42.53 5.7622 48.5931 3.30144C54.6562 0.840688 61.5661 3.76094 64.0269 9.82402Z" fill="#054E3F" fill-opacity="0.7"/>
</svg>