<svg width="160" height="136" viewBox="0 0 160 136" fill="none" xmlns="http://www.w3.org/2000/svg">
<path opacity="0.13" d="M62.4107 54.4932C61.683 53.8636 50.2401 59.0557 48.3529 59.6309C4.30843 73.1087 -4.99945 11.5103 38.8372 1.41356C76.2686 -7.20634 97.0114 25.0969 84.2091 57.5634C75.9807 78.4252 65.7612 98.7042 57.0131 119.348C37.5817 151.263 -12.4042 134.008 2.85308 95.463C11.7132 73.0854 43.5791 66.7351 63.2104 56.9571L62.4187 54.4932H62.4107Z" fill="#131316"/>
<path opacity="0.13" d="M98.1248 81.537C98.8903 82.0027 109.711 77.0817 111.721 76.4375C152.836 63.4209 164.096 117.179 128.969 132.035C98.7946 144.796 69.7602 125.384 72.1365 93.4049C72.5592 87.6999 74.7282 81.9251 76.8653 76.6626C84.72 57.3434 94.0818 38.5365 101.984 19.2251C109.648 2.89421 130.74 -5.55066 147.231 4.04296C158.889 10.8268 161.879 23.0982 158.953 35.4783C152.773 61.6202 119.336 68.5204 97.9174 78.5254C96.6735 78.6962 97.8776 81.3818 98.1248 81.537Z" fill="#131316"/>
</svg>